<svg class="svg-icon" style="width: 1em; height: 1em;vertical-align: middle;fill: currentColor;overflow: hidden;" viewBox="0 0 1024 1024" version="1.1" xmlns="http://www.w3.org/2000/svg"><path d="M935.253333 495.786667a42.666667 42.666667 0 0 0-8.96-14.08l-106.666666-106.666667a42.666667 42.666667 0 0 0-60.586667 60.586667l34.133333 33.706666H554.666667V341.333333a42.666667 42.666667 0 0 0-85.333334 0v128H230.826667l34.133333-33.706666a42.666667 42.666667 0 0 0-60.586667-60.586667l-106.666666 106.666667a42.666667 42.666667 0 0 0-8.96 14.08 42.666667 42.666667 0 0 0 0 32.426666 42.666667 42.666667 0 0 0 8.96 14.08l106.666666 106.666667a42.666667 42.666667 0 0 0 60.586667 0 42.666667 42.666667 0 0 0 0-60.586667l-34.133333-33.706666H469.333333v128a42.666667 42.666667 0 0 0 85.333334 0v-128h238.506666l-34.133333 33.706666a42.666667 42.666667 0 0 0 0 60.586667 42.666667 42.666667 0 0 0 60.586667 0l106.666666-106.666667a42.666667 42.666667 0 0 0 8.96-14.08 42.666667 42.666667 0 0 0 0-32.426666z"  /></svg>